<?xml version="1.0" encoding="UTF-8" standalone="no"?>
<svg width="24px" height="24px" viewBox="0 0 24 24" version="1.1" xmlns="http://www.w3.org/2000/svg" xmlns:xlink="http://www.w3.org/1999/xlink">
    <!-- Generator: Sketch 3.8.2 (29753) - http://www.bohemiancoding.com/sketch -->
    <title>Slice 1</title>
    <desc>Created with Sketch.</desc>
    <defs></defs>
    <g id="Page-1" stroke="none" stroke-width="1" fill="none" fill-rule="evenodd">
        <g id="search" fill="#2AA547">
            <g id="Page-1">
                <g id="search">
                    <path d="M23.3175,20.2005 L17.649,14.532 C18.504,13.1295 18.996,11.4795 18.996,9.717 C18.996,4.5915 14.5545,0.1515 9.429,0.1515 C4.3035,0.15 0.15,4.305 0.15,9.4305 C0.15,14.5545 4.5915,18.996 9.7155,18.996 C11.421,18.996 13.0155,18.5325 14.388,17.73 L20.0865,23.4315 C20.6445,23.988 21.549,23.988 22.1055,23.4315 L23.52,22.017 C24.0765,21.4605 23.874,20.757 23.3175,20.2005 L23.3175,20.2005 L23.3175,20.2005 Z M3.006,9.4305 C3.006,5.8815 5.8815,3.006 9.429,3.006 C12.978,3.006 16.14,6.1665 16.14,9.717 C16.14,13.2645 13.263,16.1415 9.7155,16.1415 C6.1665,16.14 3.006,12.978 3.006,9.4305 L3.006,9.4305 L3.006,9.4305 Z" id="Shape"></path>
                </g>
            </g>
        </g>
    </g>
</svg>